# xmcd
#
# Track frame offsets: 
#        150
#        14855
#        28352
#        42767
#        57197
#        72530
#        86982
#        100970
#        113917
#        127607
#        141585
#        154795
#        170475
#        185990
#        199907
#        212487
#        225932
#        238627
#        251270
#        263465
#
# Disc length: 3683 seconds
#
# Revision: 4
# Processed by: cddbd v1.5.2PL0 Copyright (c) Steve Scherf et al.
# Submitted via: ExactAudioCopy v1.1
#
DISCID=210e6114
DTITLE=Various Artist - Legends Of The Blues - Volume 2 (Roots N' Blu
DTITLE=es)
DYEAR=1991
DGENRE=Blues
TTITLE0=Roosevelt Sykes - Henry Ford Blues (mono)
TTITLE1=Texas Alexander - 98 Degree Blues (mono)
TTITLE2=T-Bone Walker - Trinity River Blues (mono)
TTITLE3=Barbecue Bob Hicks - She Shook Her Gin (mono)
TTITLE4=Tampa Red - Turpentine Blues (mono)
TTITLE5=Curly Weaver - No No Blues (mono)
TTITLE6=Bessie Jackson - Bo Easy Blues (mono)
TTITLE7=Walter Roland - School Boy Blues (mono)
TTITLE8=Bumble Bee Slim - Cold Blooded Murder No. 2 (mono)
TTITLE9=Buddy Moss - My Baby Won't Pay Me No Mind (mono)
TTITLE10=Robert Wilkins - Old Jim Canan's (mono)
TTITLE11=Lil Johnson - Take It Easy Greasy (mono)
TTITLE12=Casey Bill Weldon - Two Timin'  Woman (mono)
TTITLE13=Victoria Spivey - Down Hill Pull (mono)
TTITLE14=Curtis Jones - Down In The Slums (mono)
TTITLE15=Merline Johnson - Separation Blues (mono)
TTITLE16=Charlie Spand - Soon This Morning No. 2 (mono)
TTITLE17=Bill 'Jazz' Gillum - Is That A Monkey You Got (mono)
TTITLE18=Champion Jack Dupree - Hurry Down Sunshine (mono)
TTITLE19=Brownie McGhee - Goodbye Now (mono)
EXTD=
EXTT0=
EXTT1=
EXTT2=
EXTT3=
EXTT4=
EXTT5=
EXTT6=
EXTT7=
EXTT8=
EXTT9=
EXTT10=
EXTT11=
EXTT12=
EXTT13=
EXTT14=
EXTT15=
EXTT16=
EXTT17=
EXTT18=
EXTT19=
PLAYORDER=
